<mxfile host="app.diagrams.net" modified="2021-03-24T21:41:16.916Z" agent="5.0 (Macintosh; Intel Mac OS X 11_1_0) AppleWebKit/537.36 (KHTML, like Gecko) Chrome/89.0.4389.90 Safari/537.36" etag="vV59PNAuIRzasTyiBZ8p" version="14.5.1" type="github">
  <diagram id="hgG7Qdo2X7Ybv8ByNUfq" name="Page-1">
    <mxGraphModel dx="946" dy="621" grid="1" gridSize="10" guides="1" tooltips="1" connect="1" arrows="1" fold="1" page="1" pageScale="1" pageWidth="850" pageHeight="1100" math="0" shadow="0">
      <root>
        <mxCell id="0" />
        <mxCell id="1" parent="0" />
        <mxCell id="-Eoq_LRY8Kr08JRgcB4u-18" value="" style="rounded=1;whiteSpace=wrap;html=1;fontSize=18;fillColor=#f8cecc;strokeColor=#b85450;" vertex="1" parent="1">
          <mxGeometry x="620" width="160" height="210" as="geometry" />
        </mxCell>
        <mxCell id="-Eoq_LRY8Kr08JRgcB4u-7" value="" style="rounded=1;whiteSpace=wrap;html=1;fillColor=#b0e3e6;strokeColor=#0e8088;" vertex="1" parent="1">
          <mxGeometry x="280" width="300" height="210" as="geometry" />
        </mxCell>
        <mxCell id="-Eoq_LRY8Kr08JRgcB4u-1" value="&lt;b&gt;Python Client&lt;br&gt;(Rooki)&lt;/b&gt;" style="rounded=1;whiteSpace=wrap;html=1;fillColor=#d5e8d4;strokeColor=#82b366;" vertex="1" parent="1">
          <mxGeometry x="630" y="115" width="90" height="70" as="geometry" />
        </mxCell>
        <mxCell id="-Eoq_LRY8Kr08JRgcB4u-2" value="&lt;b&gt;WPS&lt;br&gt;(Rook)&lt;/b&gt;" style="rounded=1;whiteSpace=wrap;html=1;fillColor=#d5e8d4;strokeColor=#82b366;" vertex="1" parent="1">
          <mxGeometry x="510" y="120" width="70" height="60" as="geometry" />
        </mxCell>
        <mxCell id="-Eoq_LRY8Kr08JRgcB4u-3" value="&lt;b&gt;Climate Data Operators&lt;br&gt;Python Library&lt;br&gt;(Clisops)&lt;/b&gt;" style="rounded=1;whiteSpace=wrap;html=1;fillColor=#dae8fc;strokeColor=#6c8ebf;" vertex="1" parent="1">
          <mxGeometry x="390" y="120" width="90" height="60" as="geometry" />
        </mxCell>
        <mxCell id="-Eoq_LRY8Kr08JRgcB4u-4" value="&lt;b&gt;xarray&lt;/b&gt;" style="rounded=1;whiteSpace=wrap;html=1;fillColor=#1ba1e2;strokeColor=#006EAF;fontColor=#ffffff;" vertex="1" parent="1">
          <mxGeometry x="310" y="120" width="80" height="60" as="geometry" />
        </mxCell>
        <mxCell id="-Eoq_LRY8Kr08JRgcB4u-5" value="&lt;b&gt;Climate Data Pool&lt;br&gt;CMIP6&lt;br&gt;(netCDF)&lt;/b&gt;" style="shape=cylinder3;whiteSpace=wrap;html=1;boundedLbl=1;backgroundOutline=1;size=15;fillColor=#ffe6cc;strokeColor=#d79b00;" vertex="1" parent="1">
          <mxGeometry x="180" y="100" width="70" height="100" as="geometry" />
        </mxCell>
        <mxCell id="-Eoq_LRY8Kr08JRgcB4u-6" value="&lt;b&gt;Outputs&lt;br&gt;(netCDF)&lt;/b&gt;" style="shape=cylinder3;whiteSpace=wrap;html=1;boundedLbl=1;backgroundOutline=1;size=15;fillColor=#ffe6cc;strokeColor=#d79b00;" vertex="1" parent="1">
          <mxGeometry x="320" y="20" width="60" height="80" as="geometry" />
        </mxCell>
        <mxCell id="-Eoq_LRY8Kr08JRgcB4u-8" value="&lt;font style=&quot;font-size: 16px&quot;&gt;Climate Data&lt;br&gt;Subsetting&lt;br&gt;Service&lt;/font&gt;" style="text;html=1;strokeColor=none;fillColor=none;align=center;verticalAlign=middle;whiteSpace=wrap;rounded=0;fontStyle=1;fontSize=18;" vertex="1" parent="1">
          <mxGeometry x="400" y="50" width="160" height="20" as="geometry" />
        </mxCell>
        <mxCell id="-Eoq_LRY8Kr08JRgcB4u-9" value="" style="endArrow=classic;html=1;fontSize=18;exitX=0;exitY=0.5;exitDx=0;exitDy=0;" edge="1" parent="1" source="-Eoq_LRY8Kr08JRgcB4u-4" target="-Eoq_LRY8Kr08JRgcB4u-5">
          <mxGeometry width="50" height="50" relative="1" as="geometry">
            <mxPoint x="400" y="280" as="sourcePoint" />
            <mxPoint x="450" y="230" as="targetPoint" />
          </mxGeometry>
        </mxCell>
        <mxCell id="-Eoq_LRY8Kr08JRgcB4u-10" value="" style="endArrow=classic;html=1;fontSize=18;exitX=0.5;exitY=0;exitDx=0;exitDy=0;entryX=0.5;entryY=1;entryDx=0;entryDy=0;entryPerimeter=0;" edge="1" parent="1" source="-Eoq_LRY8Kr08JRgcB4u-4" target="-Eoq_LRY8Kr08JRgcB4u-6">
          <mxGeometry width="50" height="50" relative="1" as="geometry">
            <mxPoint x="400" y="280" as="sourcePoint" />
            <mxPoint x="450" y="230" as="targetPoint" />
          </mxGeometry>
        </mxCell>
        <mxCell id="-Eoq_LRY8Kr08JRgcB4u-11" value="" style="endArrow=classic;html=1;fontSize=18;exitX=0;exitY=0.5;exitDx=0;exitDy=0;entryX=1;entryY=0.5;entryDx=0;entryDy=0;" edge="1" parent="1" source="-Eoq_LRY8Kr08JRgcB4u-2" target="-Eoq_LRY8Kr08JRgcB4u-3">
          <mxGeometry width="50" height="50" relative="1" as="geometry">
            <mxPoint x="400" y="280" as="sourcePoint" />
            <mxPoint x="450" y="230" as="targetPoint" />
          </mxGeometry>
        </mxCell>
        <mxCell id="-Eoq_LRY8Kr08JRgcB4u-13" style="edgeStyle=orthogonalEdgeStyle;rounded=0;orthogonalLoop=1;jettySize=auto;html=1;exitX=0.5;exitY=1;exitDx=0;exitDy=0;fontSize=18;" edge="1" parent="1" source="-Eoq_LRY8Kr08JRgcB4u-7" target="-Eoq_LRY8Kr08JRgcB4u-7">
          <mxGeometry relative="1" as="geometry" />
        </mxCell>
        <mxCell id="-Eoq_LRY8Kr08JRgcB4u-15" style="edgeStyle=orthogonalEdgeStyle;rounded=0;orthogonalLoop=1;jettySize=auto;html=1;exitX=0.5;exitY=1;exitDx=0;exitDy=0;exitPerimeter=0;fontSize=18;" edge="1" parent="1" source="-Eoq_LRY8Kr08JRgcB4u-5" target="-Eoq_LRY8Kr08JRgcB4u-5">
          <mxGeometry relative="1" as="geometry" />
        </mxCell>
        <mxCell id="-Eoq_LRY8Kr08JRgcB4u-17" style="edgeStyle=orthogonalEdgeStyle;rounded=0;orthogonalLoop=1;jettySize=auto;html=1;exitX=0.5;exitY=1;exitDx=0;exitDy=0;fontSize=18;" edge="1" parent="1" source="-Eoq_LRY8Kr08JRgcB4u-1" target="-Eoq_LRY8Kr08JRgcB4u-1">
          <mxGeometry relative="1" as="geometry" />
        </mxCell>
        <mxCell id="-Eoq_LRY8Kr08JRgcB4u-19" value="" style="endArrow=classic;html=1;fontSize=18;exitX=0;exitY=0.5;exitDx=0;exitDy=0;entryX=1;entryY=0.5;entryDx=0;entryDy=0;" edge="1" parent="1" source="-Eoq_LRY8Kr08JRgcB4u-1" target="-Eoq_LRY8Kr08JRgcB4u-2">
          <mxGeometry width="50" height="50" relative="1" as="geometry">
            <mxPoint x="400" y="280" as="sourcePoint" />
            <mxPoint x="450" y="230" as="targetPoint" />
          </mxGeometry>
        </mxCell>
      </root>
    </mxGraphModel>
  </diagram>
</mxfile>
